<?xml version="1.0" standalone="no"?>
<!DOCTYPE svg PUBLIC "-//W3C//DTD SVG 20010904//EN"
 "http://www.w3.org/TR/2001/REC-SVG-20010904/DTD/svg10.dtd">
<svg version="1.0" xmlns="http://www.w3.org/2000/svg"
 width="260.000000pt" height="260.000000pt" viewBox="0 0 260.000000 260.000000"
 preserveAspectRatio="xMidYMid meet">
<metadata>
Created by potrace 1.11, written by Peter Selinger 2001-2013
</metadata>
<g transform="translate(0.000000,260.000000) scale(0.100000,-0.100000)"
fill="#000000" stroke="none">
<path d="M1279 2536 c-2 -2 -31 -7 -64 -10 -249 -28 -486 -189 -612 -416 -30
-54 -87 -200 -78 -200 2 0 0 -12 -6 -27 -18 -44 -20 -229 -4 -313 28 -143 31
-151 478 -960 166 -302 238 -433 266 -485 9 -16 21 -37 28 -45 6 -8 12 -17 12
-20 0 -3 3 -13 7 -23 5 -14 9 -15 20 -6 8 6 14 15 14 19 0 5 31 64 69 132 37
68 110 200 161 293 147 270 240 439 250 455 5 8 20 35 33 60 26 49 68 126 126
230 113 201 151 317 154 470 2 115 -6 175 -34 266 -100 326 -402 561 -734 573
-38 1 -72 4 -76 6 -3 3 -8 3 -10 1z m97 -539 c33 -5 98 -37 130 -64 100 -85
130 -248 65 -354 -66 -106 -159 -156 -278 -147 -73 5 -127 31 -180 86 -123
126 -103 332 41 431 46 32 136 61 171 55 11 -1 34 -5 51 -7z"/>
</g>
</svg>
