<?xml version="1.0" encoding="utf-8"?>
<!-- Generator: Adobe Illustrator 16.0.0, SVG Export Plug-In . SVG Version: 6.00 Build 0)  -->
<!DOCTYPE svg PUBLIC "-//W3C//DTD SVG 1.1//EN" "http://www.w3.org/Graphics/SVG/1.1/DTD/svg11.dtd">
<svg version="1.1" id="Layer_1" xmlns="http://www.w3.org/2000/svg" xmlns:xlink="http://www.w3.org/1999/xlink" x="0px" y="0px"
	 width="86.086px" height="55.711px" viewBox="0 0 86.086 55.711" style="enable-background:new 0 0 86.086 55.711;"
	 xml:space="preserve">
<text transform="matrix(1 0 0 1 979.8755 992.209)" style="fill:#231F20; font-family:'MyriadPro-Regular'; font-size:12;">script(src=&quot;http://libs.cartocdn.com/cartodb.js/v3/3.15/cartodb.js&quot;)</text>
<text transform="matrix(1 0 0 1 979.8755 1006.6094)" style="fill:#231F20; font-family:'MyriadPro-Regular'; font-size:12;">    script(src=&quot;../assets/js/map.js&quot;)</text>
<text transform="matrix(1 0 0 1 979.8755 1021.0078)" style="fill:#231F20; font-family:'MyriadPro-Regular'; font-size:12;">  body</text>
<g>
	<polygon style="fill:#FFFFFF;" points="73.02,48.801 73.02,7.603 61.793,14.084 61.793,55.282 	"/>
	<polygon style="fill:#FFFFFF;" points="24.115,48.801 24.115,7.603 12.889,14.084 12.889,55.282 	"/>
	<polygon style="fill:#D9D8D8;" points="85.247,55.282 85.247,14.084 74.02,7.603 74.02,48.801 	"/>
	<polygon style="fill:#D9D8D8;" points="11.889,42.896 1.163,49.09 11.889,55.282 	"/>
	<polygon style="fill:#FFFFFF;" points="11.889,41.742 11.889,0.544 0.663,7.025 0.663,48.225 	"/>
	<g>
		<path style="fill:#FFFFFF;" d="M43.092,13.568c2.133,0,4.063,0.854,5.476,2.237V7.603l-11.226,6.481v2.011
			C38.772,14.545,40.815,13.568,43.092,13.568z"/>
		<polygon style="fill:#FFFFFF;" points="43.092,37.676 37.341,27.199 37.341,55.282 48.567,48.801 48.567,27.699 		"/>
		<circle style="fill:#FFFFFF;" cx="43.092" cy="21.401" r="2.78"/>
	</g>
	<path style="fill:#D9D8D8;" d="M49.567,7.603v9.393c0.855,1.255,1.357,2.772,1.357,4.406c0,1.285-0.314,2.495-0.864,3.565h0.008
		l-0.058,0.105c-0.024,0.046-0.051,0.092-0.076,0.137l-0.367,0.669v22.923l11.227,6.481V14.084L49.567,7.603z"/>
	<path style="fill:#D9D8D8;" d="M36.255,25.22c-0.029-0.052-0.058-0.104-0.086-0.157l-0.053-0.096h0.007
		c-0.549-1.07-0.864-2.28-0.864-3.565c0-1.446,0.399-2.796,1.083-3.959v-3.358L25.115,7.603v41.198l11.226,6.481V25.377
		L36.255,25.22z"/>
</g>
</svg>
